# Blender v2.76 (sub 0) OBJ File: 'glass_pane.blend'
# www.blender.org
v 3.464441 1.732221 -0.000000
v 3.464441 3.464441 -0.000000
v 1.732220 3.464441 -0.000000
v -0.000001 1.732221 -0.000000
v -0.000001 3.464441 -0.000000
v -1.732221 3.464441 -0.000000
v -0.000001 -1.732220 -0.000000
v -0.000001 0.000000 -0.000000
v -1.732221 0.000000 -0.000000
v 3.464441 -1.732220 -0.000000
v 3.464441 0.000000 -0.000000
v 1.732220 0.000000 -0.000000
v 1.732220 -3.464441 -0.000000
v 1.732220 -1.732220 -0.000000
v -1.732221 -3.464441 -0.000000
v -1.732221 -1.732220 -0.000000
v -3.464442 -1.732220 -0.000000
v -1.732221 1.732221 -0.000000
v -3.464442 1.732221 -0.000000
v 1.732220 1.732221 -0.000000
v -0.000001 -3.464441 -0.000000
v -3.464442 -3.464441 -0.000000
v -3.464442 0.000000 -0.000000
vn 0.000000 0.000000 1.000000
s 1
f 1//1 2//1 3//1
f 4//1 5//1 6//1
f 7//1 8//1 9//1
f 10//1 11//1 12//1
f 13//1 14//1 7//1
f 15//1 16//1 17//1
f 9//1 18//1 19//1
f 12//1 20//1 4//1
f 20//1 1//1 3//1
f 18//1 4//1 6//1
f 16//1 7//1 9//1
f 14//1 10//1 12//1
f 21//1 13//1 7//1
f 22//1 15//1 17//1
f 23//1 9//1 19//1
f 8//1 12//1 4//1
