# Blender v2.77 (sub 0) OBJ File: 'glass_pane.blend'
# www.blender.org
v 1.000000 0.000000 1.367476
v 0.923880 0.382683 1.367476
v 0.707107 0.707107 1.367476
v 0.382683 0.923880 1.367476
v -0.000000 1.000000 1.367476
v -0.382683 0.923880 1.367476
v -0.707107 0.707107 1.367476
v -0.923880 0.382683 1.367476
v -1.000000 -0.000000 1.367476
v -0.923880 -0.382683 1.367476
v -0.707107 -0.707107 1.367476
v -0.382684 -0.923880 1.367476
v 0.000000 -1.000000 1.367476
v 0.382684 -0.923879 1.367476
v 0.707107 -0.707107 1.367476
v 0.923880 -0.382683 1.367476
v 1.000000 0.000000 1.401476
v 0.923880 0.382683 1.401476
v 0.707107 0.707107 1.401476
v 0.382683 0.923880 1.401476
v -0.000000 1.000000 1.401476
v -0.382683 0.923880 1.401476
v -0.707107 0.707107 1.401476
v -0.923880 0.382683 1.401476
v -1.000000 -0.000000 1.401476
v -0.923880 -0.382683 1.401476
v -0.707107 -0.707107 1.401476
v -0.382684 -0.923880 1.401476
v 0.000000 -1.000000 1.401476
v 0.382684 -0.923879 1.401476
v 0.707107 -0.707107 1.401476
v 0.923880 -0.382683 1.401476
v 0.980785 0.195090 1.385345
v 0.831470 0.555570 1.385345
v 0.555570 0.831470 1.385345
v 0.195090 0.980785 1.385345
v -0.195090 0.980785 1.385345
v -0.555570 0.831470 1.385345
v -0.831470 0.555570 1.385345
v -0.980785 0.195090 1.385345
v -0.980785 -0.195090 1.385345
v -0.831470 -0.555570 1.385345
v -0.555570 -0.831469 1.385345
v -0.195090 -0.980785 1.385345
v 0.195090 -0.980785 1.385345
v 0.555570 -0.831470 1.385345
v 0.831470 -0.555570 1.385345
v 0.980785 -0.195090 1.385345
v 0.980785 0.195090 1.385562
v 0.831470 0.555570 1.385562
v 0.555570 0.831470 1.385562
v 0.195090 0.980785 1.385562
v -0.195090 0.980785 1.385562
v -0.555570 0.831470 1.385562
v -0.831470 0.555570 1.385562
v -0.980785 0.195090 1.385562
v -0.980785 -0.195090 1.385562
v -0.831470 -0.555570 1.385562
v -0.555570 -0.831469 1.385562
v -0.195090 -0.980785 1.385562
v 0.195090 -0.980785 1.385562
v 0.555570 -0.831470 1.385562
v 0.831470 -0.555570 1.385562
v 0.980785 -0.195090 1.385562
v 0.995185 0.098017 1.380931
v 0.956940 0.290285 1.380931
v 0.881921 0.471397 1.380931
v 0.773010 0.634393 1.380931
v 0.634393 0.773010 1.380931
v 0.471397 0.881921 1.380931
v 0.290285 0.956940 1.380931
v 0.098017 0.995185 1.380931
v -0.098017 0.995185 1.380931
v -0.290285 0.956940 1.380931
v -0.471397 0.881921 1.380931
v -0.634393 0.773010 1.380931
v -0.773010 0.634393 1.380931
v -0.881921 0.471397 1.380931
v -0.956940 0.290285 1.380931
v -0.995185 0.098017 1.380931
v -0.995185 -0.098017 1.380931
v -0.956940 -0.290285 1.380931
v -0.881921 -0.471397 1.380931
v -0.773011 -0.634393 1.380931
v -0.634393 -0.773010 1.380931
v -0.471397 -0.881921 1.380931
v -0.290285 -0.956940 1.380931
v -0.098017 -0.995185 1.380931
v 0.098017 -0.995185 1.380931
v 0.290285 -0.956940 1.380931
v 0.471397 -0.881921 1.380931
v 0.634393 -0.773010 1.380931
v 0.773011 -0.634393 1.380931
v 0.881921 -0.471397 1.380931
v 0.956940 -0.290285 1.380931
v 0.995185 -0.098017 1.380931
v 0.995185 0.098017 1.389492
v 0.956940 0.290285 1.389492
v 0.881921 0.471397 1.389492
v 0.773010 0.634393 1.389492
v 0.634393 0.773010 1.389492
v 0.471397 0.881921 1.389492
v 0.290285 0.956940 1.389492
v 0.098017 0.995185 1.389492
v -0.098017 0.995185 1.389492
v -0.290285 0.956940 1.389492
v -0.471397 0.881921 1.389492
v -0.634393 0.773010 1.389492
v -0.773010 0.634393 1.389492
v -0.881921 0.471397 1.389492
v -0.956940 0.290285 1.389492
v -0.995185 0.098017 1.389492
v -0.995185 -0.098017 1.389492
v -0.956940 -0.290285 1.389492
v -0.881921 -0.471397 1.389492
v -0.773011 -0.634393 1.389492
v -0.634393 -0.773010 1.389492
v -0.471397 -0.881921 1.389492
v -0.290285 -0.956940 1.389492
v -0.098017 -0.995185 1.389492
v 0.098017 -0.995185 1.389492
v 0.290285 -0.956940 1.389492
v 0.471397 -0.881921 1.389492
v 0.634393 -0.773010 1.389492
v 0.773011 -0.634393 1.389492
v 0.881921 -0.471397 1.389492
v 0.956940 -0.290285 1.389492
v 0.995185 -0.098017 1.389492
v 0.647500 0.268203 1.644476
v 0.268203 0.647500 1.644476
v -0.268203 0.647500 1.644476
v -0.647500 0.268203 1.644476
v -0.647500 -0.268203 1.644476
v -0.268203 -0.647500 1.644476
v 0.268203 -0.647500 1.644476
v 0.647500 -0.268203 1.644476
v 0.530000 0.000000 1.725476
v 0.374767 0.374767 1.725476
v -0.000000 0.530000 1.725476
v -0.374767 0.374767 1.725476
v -0.530000 -0.000000 1.725476
v -0.374767 -0.374767 1.725476
v 0.000000 -0.530000 1.725476
v 0.374766 -0.374767 1.725476
v 0.400000 0.165685 0.850276
v 0.165685 0.400000 0.850276
v -0.165685 0.400000 0.850276
v -0.400000 0.165685 0.850276
v -0.400000 -0.165685 0.850276
v -0.165685 -0.400000 0.850276
v 0.165686 -0.400000 0.850276
v 0.400000 -0.165685 0.850276
v 0.000000 0.000000 0.505476
vn 0.9988 0.0491 0.0000
vn 0.9988 -0.0491 0.0000
vn 0.9040 0.4276 0.0000
vn 0.9415 0.3369 0.0000
vn 0.6716 0.7410 0.0000
vn 0.7410 0.6716 0.0000
vn 0.3369 0.9415 0.0000
vn 0.4276 0.9040 0.0000
vn -0.0491 0.9988 0.0000
vn 0.0491 0.9988 0.0000
vn -0.4276 0.9040 0.0000
vn -0.3369 0.9415 0.0000
vn -0.7410 0.6716 0.0000
vn -0.6716 0.7410 0.0000
vn -0.9415 0.3369 0.0000
vn -0.9040 0.4276 0.0000
vn -0.9988 -0.0491 0.0000
vn -0.9988 0.0491 0.0000
vn -0.9040 -0.4276 0.0000
vn -0.9415 -0.3369 0.0000
vn -0.6716 -0.7410 0.0000
vn -0.7410 -0.6716 0.0000
vn -0.3369 -0.9415 0.0000
vn -0.4276 -0.9040 0.0000
vn 0.0491 -0.9988 0.0000
vn -0.0491 -0.9988 0.0000
vn 0.4276 -0.9040 0.0000
vn 0.3369 -0.9415 0.0000
vn 0.7410 -0.6716 0.0000
vn 0.6716 -0.7409 0.0000
vn 0.9415 -0.3369 0.0000
vn 0.9040 -0.4276 0.0000
vn 0.9892 0.1467 0.0000
vn 0.9700 0.2430 0.0000
vn 0.8577 0.5141 0.0000
vn 0.8033 0.5956 0.0000
vn 0.5957 0.8032 0.0000
vn 0.5143 0.8576 0.0000
vn 0.2430 0.9700 0.0000
vn 0.1468 0.9892 0.0000
vn -0.1467 0.9892 0.0000
vn -0.2429 0.9701 0.0000
vn -0.5141 0.8577 0.0000
vn -0.5956 0.8033 0.0000
vn -0.8032 0.5957 0.0000
vn -0.8578 0.5140 0.0000
vn -0.9700 0.2430 0.0000
vn -0.9892 0.1467 0.0000
vn -0.9892 -0.1467 0.0000
vn -0.9700 -0.2430 0.0000
vn -0.8577 -0.5141 0.0000
vn -0.8030 -0.5959 0.0000
vn -0.5957 -0.8032 0.0000
vn -0.5143 -0.8576 0.0000
vn -0.2430 -0.9700 0.0000
vn -0.1468 -0.9892 0.0000
vn 0.1467 -0.9892 0.0000
vn 0.2429 -0.9701 0.0000
vn 0.5141 -0.8577 0.0000
vn 0.5956 -0.8033 0.0000
vn 0.8032 -0.5957 0.0000
vn 0.8578 -0.5140 0.0000
vn 0.9700 -0.2430 0.0000
vn 0.9892 -0.1469 0.0000
vn 0.6256 -0.1240 0.7703
vn 0.5307 -0.3541 0.7701
vn 0.5300 0.3547 0.7703
vn 0.6256 0.1249 0.7701
vn 0.1240 0.6256 0.7703
vn 0.3541 0.5307 0.7701
vn -0.3547 0.5300 0.7703
vn -0.1249 0.6256 0.7701
vn -0.6256 0.1240 0.7703
vn -0.5307 0.3541 0.7701
vn -0.5300 -0.3547 0.7703
vn -0.6256 -0.1249 0.7701
vn -0.1240 -0.6256 0.7703
vn -0.3541 -0.5307 0.7701
vn 0.3547 -0.5300 0.7703
vn 0.1249 -0.6256 0.7701
vn 0.3308 0.1370 0.9337
vn 0.4013 0.4013 0.8233
vn 0.1370 0.3308 0.9337
vn 0.0000 0.5676 0.8233
vn -0.1370 0.3308 0.9337
vn -0.4013 0.4013 0.8233
vn -0.3308 0.1370 0.9337
vn -0.5676 0.0000 0.8233
vn -0.3308 -0.1370 0.9337
vn -0.4013 -0.4013 0.8233
vn -0.1370 -0.3308 0.9337
vn -0.0000 -0.5676 0.8233
vn 0.1370 -0.3308 0.9337
vn 0.4013 -0.4013 0.8233
vn 0.3308 -0.1370 0.9337
vn 0.5676 0.0000 0.8233
vn 0.0000 0.0000 1.0000
vn 0.6680 0.1324 -0.7323
vn 0.6679 -0.1333 -0.7322
vn 0.3787 0.5659 -0.7323
vn 0.5665 0.3780 -0.7322
vn -0.1324 0.6680 -0.7323
vn 0.1333 0.6679 -0.7322
vn -0.5659 0.3787 -0.7323
vn -0.3780 0.5665 -0.7322
vn -0.6680 -0.1324 -0.7323
vn -0.6679 0.1333 -0.7322
vn -0.3787 -0.5659 -0.7323
vn -0.5665 -0.3780 -0.7322
vn 0.1324 -0.6680 -0.7323
vn -0.1333 -0.6679 -0.7322
vn 0.5659 -0.3787 -0.7323
vn 0.3780 -0.5665 -0.7322
vn 0.6529 0.0000 -0.7574
vn 0.4617 0.4617 -0.7574
vn 0.0000 0.6529 -0.7574
vn -0.4617 0.4617 -0.7574
vn -0.6529 0.0000 -0.7574
vn -0.4617 -0.4617 -0.7574
vn 0.0000 -0.6529 -0.7574
vn 0.4617 -0.4617 -0.7574
vn 0.6716 0.7409 0.0000
vn -0.6716 0.7409 0.0000
vn -0.6716 -0.7409 0.0000
vn 0.6716 -0.7410 0.0000
vn 0.9892 0.1469 0.0000
vn 0.8576 0.5143 0.0000
vn 0.8032 0.5957 0.0000
vn 0.5956 0.8033 0.0000
vn 0.5141 0.8577 0.0000
vn 0.2429 0.9701 0.0000
vn 0.1467 0.9892 0.0000
vn -0.1468 0.9892 0.0000
vn -0.2430 0.9700 0.0000
vn -0.5143 0.8576 0.0000
vn -0.5957 0.8032 0.0000
vn -0.8033 0.5956 0.0000
vn -0.8577 0.5141 0.0000
vn -0.8576 -0.5143 0.0000
vn -0.8032 -0.5957 0.0000
vn -0.5956 -0.8033 0.0000
vn -0.5141 -0.8577 0.0000
vn -0.2429 -0.9701 0.0000
vn -0.1467 -0.9892 0.0000
vn 0.1468 -0.9892 0.0000
vn 0.2430 -0.9700 0.0000
vn 0.5138 -0.8579 0.0000
vn 0.5957 -0.8032 0.0000
vn 0.8030 -0.5959 0.0000
vn 0.8577 -0.5141 0.0000
vn 0.9892 -0.1467 0.0000
vn 0.6258 -0.1249 0.7699
vn 0.6257 -0.1240 0.7701
vn 0.6256 -0.1249 0.7701
vn 0.5308 -0.3542 0.7699
vn 0.5300 -0.3547 0.7703
vn 0.5302 -0.3548 0.7701
vn 0.5302 0.3548 0.7701
vn 0.5307 0.3541 0.7701
vn 0.5308 0.3542 0.7699
vn 0.6257 0.1240 0.7701
vn 0.6258 0.1249 0.7699
vn 0.6256 0.1240 0.7703
vn 0.1240 0.6257 0.7701
vn 0.1249 0.6256 0.7701
vn 0.1249 0.6258 0.7699
vn 0.3548 0.5302 0.7701
vn 0.3542 0.5308 0.7699
vn 0.3547 0.5300 0.7703
vn -0.3548 0.5302 0.7701
vn -0.3541 0.5307 0.7701
vn -0.3542 0.5308 0.7699
vn -0.1240 0.6257 0.7701
vn -0.1249 0.6258 0.7699
vn -0.1240 0.6256 0.7703
vn -0.6257 0.1240 0.7701
vn -0.6256 0.1249 0.7701
vn -0.6258 0.1249 0.7699
vn -0.5302 0.3548 0.7701
vn -0.5308 0.3542 0.7699
vn -0.5300 0.3547 0.7703
vn -0.5302 -0.3548 0.7701
vn -0.5307 -0.3541 0.7701
vn -0.5308 -0.3542 0.7699
vn -0.6257 -0.1240 0.7701
vn -0.6258 -0.1249 0.7699
vn -0.6256 -0.1240 0.7703
vn -0.1240 -0.6257 0.7701
vn -0.1249 -0.6256 0.7701
vn -0.1249 -0.6258 0.7699
vn -0.3548 -0.5302 0.7701
vn -0.3542 -0.5308 0.7699
vn -0.3547 -0.5300 0.7703
vn 0.3548 -0.5302 0.7701
vn 0.3541 -0.5307 0.7701
vn 0.3542 -0.5308 0.7699
vn 0.1240 -0.6257 0.7701
vn 0.1249 -0.6258 0.7699
vn 0.1240 -0.6256 0.7703
vn 0.6679 0.1333 -0.7322
vn 0.6681 0.1324 -0.7322
vn 0.6680 -0.1324 -0.7323
vn 0.6681 -0.1324 -0.7322
vn 0.3780 0.5666 -0.7322
vn 0.3788 0.5660 -0.7322
vn 0.3780 0.5665 -0.7322
vn 0.5666 0.3780 -0.7322
vn 0.5659 0.3787 -0.7323
vn 0.5660 0.3788 -0.7322
vn -0.1333 0.6679 -0.7322
vn -0.1324 0.6681 -0.7322
vn 0.1324 0.6680 -0.7323
vn 0.1324 0.6681 -0.7322
vn -0.5666 0.3780 -0.7322
vn -0.5660 0.3788 -0.7322
vn -0.5665 0.3780 -0.7322
vn -0.3780 0.5666 -0.7322
vn -0.3787 0.5659 -0.7323
vn -0.3788 0.5660 -0.7322
vn -0.6679 -0.1333 -0.7322
vn -0.6681 -0.1324 -0.7322
vn -0.6680 0.1324 -0.7323
vn -0.6681 0.1324 -0.7322
vn -0.3780 -0.5666 -0.7322
vn -0.3788 -0.5660 -0.7322
vn -0.3780 -0.5665 -0.7322
vn -0.5666 -0.3780 -0.7322
vn -0.5659 -0.3787 -0.7323
vn -0.5660 -0.3788 -0.7322
vn 0.1333 -0.6679 -0.7322
vn 0.1324 -0.6681 -0.7322
vn -0.1324 -0.6680 -0.7323
vn -0.1324 -0.6681 -0.7322
vn 0.5666 -0.3780 -0.7322
vn 0.5660 -0.3788 -0.7322
vn 0.5665 -0.3780 -0.7322
vn 0.3780 -0.5666 -0.7322
vn 0.3787 -0.5659 -0.7323
vn 0.3788 -0.5660 -0.7322
s off
f 65//1 17//1 1//1
f 17//2 96//2 1//2
f 67//3 18//3 2//3
f 18//4 66//4 2//4
f 69//5 19//5 3//5
f 19//6 68//6 3//6
f 71//7 20//7 4//7
f 20//8 70//8 4//8
f 73//9 21//9 5//9
f 21//10 72//10 5//10
f 75//11 22//11 6//11
f 22//12 74//12 6//12
f 77//13 23//13 7//13
f 23//14 76//14 7//14
f 79//15 24//15 8//15
f 24//16 78//16 8//16
f 81//17 25//17 9//17
f 25//18 80//18 9//18
f 83//19 26//19 10//19
f 26//20 82//20 10//20
f 85//21 27//21 11//21
f 27//22 84//22 11//22
f 87//23 28//23 12//23
f 28//24 86//24 12//24
f 89//25 29//25 13//25
f 29//26 88//26 13//26
f 91//27 30//27 14//27
f 30//28 90//28 14//28
f 93//29 31//29 15//29
f 31//30 92//30 15//30
f 95//31 32//31 16//31
f 32//32 94//32 16//32
f 33//33 97//33 65//33
f 33//34 98//34 49//34
f 34//35 99//35 67//35
f 34//36 100//36 50//36
f 35//37 101//37 69//37
f 35//38 102//38 51//38
f 36//39 103//39 71//39
f 36//40 104//40 52//40
f 37//41 105//41 73//41
f 37//42 106//42 53//42
f 38//43 107//43 75//43
f 38//44 108//44 54//44
f 39//45 109//45 77//45
f 39//46 110//46 55//46
f 40//47 111//47 79//47
f 40//48 112//48 56//48
f 41//49 113//49 81//49
f 41//50 114//50 57//50
f 42//51 115//51 83//51
f 42//52 116//52 58//52
f 43//53 117//53 85//53
f 43//54 118//54 59//54
f 44//55 119//55 87//55
f 44//56 120//56 60//56
f 45//57 121//57 89//57
f 45//58 122//58 61//58
f 46//59 123//59 91//59
f 46//60 124//60 62//60
f 47//61 125//61 93//61
f 47//62 126//62 63//62
f 48//63 127//63 95//63
f 48//64 128//64 64//64
f 136//65 64//65 128//65
f 63//66 126//66 136//66
f 50//67 100//67 129//67
f 129//68 49//68 98//68
f 52//69 104//69 130//69
f 130//70 51//70 102//70
f 54//71 108//71 131//71
f 131//72 53//72 106//72
f 56//73 112//73 132//73
f 132//74 55//74 110//74
f 58//75 116//75 133//75
f 133//76 57//76 114//76
f 60//77 120//77 134//77
f 134//78 59//78 118//78
f 62//79 124//79 135//79
f 135//80 61//80 122//80
f 137//81 129//81 138//81
f 138//82 19//82 130//82
f 138//83 130//83 139//83
f 139//84 21//84 131//84
f 139//85 131//85 140//85
f 140//86 23//86 132//86
f 140//87 132//87 141//87
f 141//88 25//88 133//88
f 141//89 133//89 142//89
f 142//90 27//90 134//90
f 142//91 134//91 143//91
f 143//92 29//92 135//92
f 143//93 135//93 144//93
f 144//94 31//94 136//94
f 144//95 136//95 137//95
f 17//96 137//96 136//96
f 140//97 142//97 144//97
f 145//98 33//98 65//98
f 48//99 95//99 152//99
f 146//100 35//100 69//100
f 34//101 67//101 145//101
f 147//102 37//102 73//102
f 36//103 71//103 146//103
f 148//104 39//104 77//104
f 38//105 75//105 147//105
f 149//106 41//106 81//106
f 40//107 79//107 148//107
f 150//108 43//108 85//108
f 42//109 83//109 149//109
f 151//110 45//110 89//110
f 44//111 87//111 150//111
f 152//112 47//112 93//112
f 46//113 91//113 151//113
f 152//114 145//114 1//114
f 145//115 146//115 3//115
f 146//116 147//116 5//116
f 147//117 148//117 7//117
f 148//118 149//118 9//118
f 149//119 150//119 11//119
f 150//120 151//120 13//120
f 151//121 152//121 15//121
f 65//1 97//1 17//1
f 17//2 128//2 96//2
f 67//3 99//3 18//3
f 18//4 98//4 66//4
f 69//122 101//122 19//122
f 19//6 100//6 68//6
f 71//7 103//7 20//7
f 20//8 102//8 70//8
f 73//9 105//9 21//9
f 21//10 104//10 72//10
f 75//11 107//11 22//11
f 22//12 106//12 74//12
f 77//13 109//13 23//13
f 23//123 108//123 76//123
f 79//15 111//15 24//15
f 24//16 110//16 78//16
f 81//17 113//17 25//17
f 25//18 112//18 80//18
f 83//19 115//19 26//19
f 26//20 114//20 82//20
f 85//124 117//124 27//124
f 27//22 116//22 84//22
f 87//23 119//23 28//23
f 28//24 118//24 86//24
f 89//25 121//25 29//25
f 29//26 120//26 88//26
f 91//27 123//27 30//27
f 30//28 122//28 90//28
f 93//29 125//29 31//29
f 31//125 124//125 92//125
f 95//31 127//31 32//31
f 32//32 126//32 94//32
f 33//126 49//126 97//126
f 33//34 66//34 98//34
f 34//127 50//127 99//127
f 34//128 68//128 100//128
f 35//129 51//129 101//129
f 35//130 70//130 102//130
f 36//131 52//131 103//131
f 36//132 72//132 104//132
f 37//133 53//133 105//133
f 37//134 74//134 106//134
f 38//135 54//135 107//135
f 38//136 76//136 108//136
f 39//137 55//137 109//137
f 39//138 78//138 110//138
f 40//47 56//47 111//47
f 40//48 80//48 112//48
f 41//49 57//49 113//49
f 41//50 82//50 114//50
f 42//139 58//139 115//139
f 42//140 84//140 116//140
f 43//141 59//141 117//141
f 43//142 86//142 118//142
f 44//143 60//143 119//143
f 44//144 88//144 120//144
f 45//145 61//145 121//145
f 45//146 90//146 122//146
f 46//147 62//147 123//147
f 46//148 92//148 124//148
f 47//149 63//149 125//149
f 47//150 94//150 126//150
f 48//63 64//63 127//63
f 48//151 96//151 128//151
f 128//152 17//152 136//152
f 136//153 32//153 127//153
f 127//154 64//154 136//154
f 136//155 31//155 125//155
f 125//156 63//156 136//156
f 126//157 32//157 136//157
f 129//158 18//158 99//158
f 99//159 50//159 129//159
f 100//160 19//160 129//160
f 98//161 18//161 129//161
f 129//162 17//162 97//162
f 97//163 49//163 129//163
f 130//164 20//164 103//164
f 103//165 52//165 130//165
f 104//166 21//166 130//166
f 102//167 20//167 130//167
f 130//168 19//168 101//168
f 101//169 51//169 130//169
f 131//170 22//170 107//170
f 107//171 54//171 131//171
f 108//172 23//172 131//172
f 106//173 22//173 131//173
f 131//174 21//174 105//174
f 105//175 53//175 131//175
f 132//176 24//176 111//176
f 111//177 56//177 132//177
f 112//178 25//178 132//178
f 110//179 24//179 132//179
f 132//180 23//180 109//180
f 109//181 55//181 132//181
f 133//182 26//182 115//182
f 115//183 58//183 133//183
f 116//184 27//184 133//184
f 114//185 26//185 133//185
f 133//186 25//186 113//186
f 113//187 57//187 133//187
f 134//188 28//188 119//188
f 119//189 60//189 134//189
f 120//190 29//190 134//190
f 118//191 28//191 134//191
f 134//192 27//192 117//192
f 117//193 59//193 134//193
f 135//194 30//194 123//194
f 123//195 62//195 135//195
f 124//196 31//196 135//196
f 122//197 30//197 135//197
f 135//198 29//198 121//198
f 121//199 61//199 135//199
f 138//82 129//82 19//82
f 139//84 130//84 21//84
f 140//86 131//86 23//86
f 141//88 132//88 25//88
f 142//90 133//90 27//90
f 143//92 134//92 29//92
f 144//94 135//94 31//94
f 17//96 129//96 137//96
f 144//97 137//97 138//97
f 138//97 139//97 140//97
f 140//97 141//97 142//97
f 142//97 143//97 144//97
f 144//97 138//97 140//97
f 65//200 1//200 145//200
f 145//201 2//201 66//201
f 66//200 33//200 145//200
f 152//99 1//99 96//99
f 96//202 48//202 152//202
f 95//203 16//203 152//203
f 69//204 3//204 146//204
f 146//205 4//205 70//205
f 70//206 35//206 146//206
f 145//207 3//207 68//207
f 68//208 34//208 145//208
f 67//209 2//209 145//209
f 73//210 5//210 147//210
f 147//211 6//211 74//211
f 74//210 37//210 147//210
f 146//103 5//103 72//103
f 72//212 36//212 146//212
f 71//213 4//213 146//213
f 77//214 7//214 148//214
f 148//215 8//215 78//215
f 78//216 39//216 148//216
f 147//217 7//217 76//217
f 76//218 38//218 147//218
f 75//219 6//219 147//219
f 81//220 9//220 149//220
f 149//221 10//221 82//221
f 82//220 41//220 149//220
f 148//107 9//107 80//107
f 80//222 40//222 148//222
f 79//223 8//223 148//223
f 85//224 11//224 150//224
f 150//225 12//225 86//225
f 86//226 43//226 150//226
f 149//227 11//227 84//227
f 84//228 42//228 149//228
f 83//229 10//229 149//229
f 89//230 13//230 151//230
f 151//231 14//231 90//231
f 90//230 45//230 151//230
f 150//111 13//111 88//111
f 88//232 44//232 150//232
f 87//233 12//233 150//233
f 93//234 15//234 152//234
f 152//235 16//235 94//235
f 94//236 47//236 152//236
f 151//237 15//237 92//237
f 92//238 46//238 151//238
f 91//239 14//239 151//239
f 152//114 153//114 145//114
f 145//115 153//115 146//115
f 146//116 153//116 147//116
f 147//117 153//117 148//117
f 148//118 153//118 149//118
f 149//119 153//119 150//119
f 150//120 153//120 151//120
f 151//121 153//121 152//121
