# Blender v2.76 (sub 0) OBJ File: 'blend_scene.blend'
# www.blender.org
v -2.885357 2.584489 -2.800828
v 4.043525 9.513371 -2.800828
v -2.885357 6.048930 -2.800828
v 0.579084 2.584489 -2.800828
v 4.043525 6.048930 -2.800828
v 0.579084 9.513371 -2.800828
v 0.579084 6.048930 -2.800828
v -2.885357 4.316710 -2.800828
v 2.311305 2.584489 -2.800828
v 4.043525 7.781151 -2.800828
v -1.153136 9.513371 -2.800828
v -2.885357 7.781151 -2.800828
v -1.153136 2.584489 -2.800828
v 4.043525 4.316710 -2.800828
v 2.311305 9.513371 -2.800828
v 0.579084 7.781151 -2.800828
v 0.579084 4.316710 -2.800828
v -1.153136 6.048930 -2.800828
v 2.311305 6.048930 -2.800828
v 2.311305 4.316710 -2.800828
v -1.153136 4.316710 -2.800828
v -1.153136 7.781151 -2.800828
v 2.311305 7.781151 -2.800828
vn 0.000000 0.000000 1.000000
s off
f 10//1 2//1 15//1
f 16//1 6//1 11//1
f 17//1 7//1 18//1
f 14//1 5//1 19//1
f 9//1 20//1 17//1
f 13//1 21//1 8//1
f 18//1 22//1 12//1
f 19//1 23//1 16//1
f 23//1 10//1 15//1
f 22//1 16//1 11//1
f 21//1 17//1 18//1
f 20//1 14//1 19//1
f 4//1 9//1 17//1
f 1//1 13//1 8//1
f 3//1 18//1 12//1
f 7//1 19//1 16//1
