# Blender v2.76 (sub 0) OBJ File: 'blend_scene.blend'
# www.blender.org
v 4.043525 2.584489 -2.800828
v -2.885357 9.513371 -2.800828
v -2.885357 6.048930 -2.800828
v 0.579084 2.584489 -2.800828
v 4.043525 6.048930 -2.800828
v 0.579084 9.513371 -2.800828
v 0.579084 6.048930 -2.800828
v -2.885357 4.316710 -2.800828
v 2.311305 2.584489 -2.800828
v 4.043525 7.781151 -2.800828
v -1.153136 9.513371 -2.800828
v -2.885357 7.781151 -2.800828
v -1.153136 2.584489 -2.800828
v 4.043525 4.316710 -2.800828
v 2.311305 9.513371 -2.800828
v 0.579084 7.781151 -2.800828
v 0.579084 4.316710 -2.800828
v -1.153136 6.048930 -2.800828
v 2.311305 6.048930 -2.800828
v 2.311305 4.316710 -2.800828
v -1.153136 4.316710 -2.800828
v -1.153136 7.781151 -2.800828
v 2.311305 7.781151 -2.800828
vn 0.000000 0.000000 1.000000
s off
f 20//1 19//1 7//1
f 1//1 14//1 20//1
f 21//1 18//1 3//1
f 4//1 17//1 21//1
f 22//1 11//1 2//1
f 7//1 16//1 22//1
f 23//1 15//1 6//1
f 5//1 10//1 23//1
f 17//1 20//1 7//1
f 9//1 1//1 20//1
f 8//1 21//1 3//1
f 13//1 4//1 21//1
f 12//1 22//1 2//1
f 18//1 7//1 22//1
f 16//1 23//1 6//1
f 19//1 5//1 23//1
