# Blender v2.76 (sub 0) OBJ File: 'blend_scene.blend'
# www.blender.org
v -1.958676 -1.258513 1.110329
v -0.958676 -0.258513 1.110329
v 0.041324 -1.258513 1.110329
v -0.958676 -2.258513 1.110329
v -0.958676 -1.258513 0.110329
v -0.958676 -1.258513 2.110329
v -1.708676 -2.008513 1.110329
v -1.708676 -1.258513 1.860329
v -1.708676 -0.508513 1.110329
v -1.708676 -1.258513 0.360329
v -0.958676 -0.508513 1.860329
v -0.208676 -0.508513 1.110329
v -0.958676 -0.508513 0.360329
v -0.208676 -1.258513 1.860329
v -0.208676 -2.008513 1.110329
v -0.208676 -1.258513 0.360329
v -0.958676 -2.008513 1.860329
v -0.958676 -2.008513 0.360329
v -1.514232 -1.814069 0.554773
v -1.514232 -1.814069 1.665885
v -1.514232 -0.702958 0.554773
v -1.514232 -0.702958 1.665885
v -0.403121 -1.814069 0.554773
v -0.403121 -1.814069 1.665885
v -0.403121 -0.702958 0.554773
v -0.403121 -0.702958 1.665885
vn -0.867500 -0.289200 0.404800
vn -0.867500 0.404800 0.289200
vn -0.867500 0.289200 -0.404800
vn -0.867500 -0.404800 -0.289200
vn -0.289200 0.867500 0.404800
vn 0.404800 0.867500 0.289200
vn 0.289200 0.867500 -0.404800
vn -0.404800 0.867500 -0.289200
vn 0.867500 0.289200 0.404800
vn 0.867500 -0.404800 0.289200
vn 0.867500 -0.289200 -0.404800
vn 0.867500 0.404800 -0.289200
vn 0.289200 -0.867500 0.404800
vn -0.404800 -0.867500 0.289200
vn -0.289200 -0.867500 -0.404800
vn 0.404800 -0.867500 -0.289200
vn -0.404800 -0.289200 -0.867500
vn -0.289200 0.404800 -0.867500
vn 0.404800 0.289200 -0.867500
vn 0.289200 -0.404800 -0.867500
vn 0.404800 -0.289200 0.867500
vn 0.289200 0.404800 0.867500
vn -0.404800 0.289200 0.867500
vn -0.289200 -0.404800 0.867500
vn -0.867500 -0.404800 0.289200
vn -0.867500 0.289200 0.404800
vn -0.867500 0.404800 -0.289200
vn -0.867500 -0.289200 -0.404800
vn -0.404800 0.867500 0.289200
vn 0.289200 0.867500 0.404800
vn 0.404800 0.867500 -0.289200
vn -0.289200 0.867500 -0.404800
vn 0.867500 0.404800 0.289200
vn 0.867500 -0.289200 0.404800
vn 0.867500 -0.404800 -0.289200
vn 0.867500 0.289200 -0.404800
vn 0.404800 -0.867500 0.289200
vn -0.289200 -0.867500 0.404800
vn -0.404800 -0.867500 -0.289200
vn 0.289200 -0.867500 -0.404800
vn -0.289200 -0.404800 -0.867500
vn -0.404800 0.289200 -0.867500
vn 0.289200 0.404800 -0.867500
vn 0.404800 -0.289200 -0.867500
vn 0.289200 -0.404800 0.867500
vn 0.404800 0.289200 0.867500
vn -0.289200 0.404800 0.867500
vn -0.404800 -0.289200 0.867500
s off
f 1//1 7//1 20//1
f 1//2 8//2 22//2
f 1//3 9//3 21//3
f 1//4 10//4 19//4
f 2//5 9//5 22//5
f 2//6 11//6 26//6
f 2//7 12//7 25//7
f 2//8 13//8 21//8
f 3//9 12//9 26//9
f 3//10 14//10 24//10
f 3//11 15//11 23//11
f 3//12 16//12 25//12
f 4//13 15//13 24//13
f 4//14 17//14 20//14
f 4//15 7//15 19//15
f 4//16 18//16 23//16
f 5//17 18//17 19//17
f 5//18 10//18 21//18
f 5//19 13//19 25//19
f 5//20 16//20 23//20
f 6//21 17//21 24//21
f 6//22 14//22 26//22
f 6//23 11//23 22//23
f 6//24 8//24 20//24
f 8//25 1//25 20//25
f 9//26 1//26 22//26
f 10//27 1//27 21//27
f 7//28 1//28 19//28
f 11//29 2//29 22//29
f 12//30 2//30 26//30
f 13//31 2//31 25//31
f 9//32 2//32 21//32
f 14//33 3//33 26//33
f 15//34 3//34 24//34
f 16//35 3//35 23//35
f 12//36 3//36 25//36
f 17//37 4//37 24//37
f 7//38 4//38 20//38
f 18//39 4//39 19//39
f 15//40 4//40 23//40
f 10//41 5//41 19//41
f 13//42 5//42 21//42
f 16//43 5//43 25//43
f 18//44 5//44 23//44
f 14//45 6//45 24//45
f 11//46 6//46 26//46
f 8//47 6//47 22//47
f 17//48 6//48 20//48
